<svg xmlns="http://www.w3.org/2000/svg"  viewBox="0 0 64 64" width="128px" height="128px" baseProfile="basic"><linearGradient id="8HdvL7yHAC4FjCBjrv-f7a" x1="32.414" x2="32.414" y1="44.02" y2="3" gradientUnits="userSpaceOnUse"><stop offset="0" stop-color="#c822ff"/><stop offset="1" stop-color="#1a6dff"/></linearGradient><path fill="url(#8HdvL7yHAC4FjCBjrv-f7a)" d="M8.631,44.021c-0.242,0-0.482-0.088-0.67-0.258c-0.303-0.273-0.409-0.703-0.269-1.086	c6.221-16.95,13.643-37.17,13.671-37.242C22.128,3.425,23.348,3,24.234,3h16.36c1.273,0,2.324,0.9,2.885,2.469	c0.099,0.273,13.656,37.207,13.656,37.207c0.146,0.397,0.025,0.843-0.3,1.114c-0.324,0.271-0.786,0.307-1.15,0.09	c-0.063-0.038-6.445-3.769-15.563-3.769c-0.434,0-0.818-0.28-0.951-0.692l-6.068-18.781c-0.131-0.51-0.412-0.833-0.688-0.833	s-0.558,0.323-0.67,0.769l-6.087,18.846c-0.133,0.413-0.518,0.692-0.951,0.692c-7.715,0-15.56,3.771-15.638,3.809	C8.93,43.987,8.779,44.021,8.631,44.021z M24.234,5c-0.468,0-0.807,0.631-1.008,1.161c-0.113,0.303-9.943,27.086-12.854,35.017	c2.856-1.137,8.137-2.909,13.603-3.058l5.849-18.099c0.323-1.301,1.372-2.218,2.591-2.218s2.268,0.917,2.609,2.282l5.829,18.032	c6.083,0.123,10.881,1.748,13.545,2.901C50.511,30.433,41.618,6.207,41.594,6.138C41.443,5.715,41.111,5,40.595,5H24.234z"/><linearGradient id="8HdvL7yHAC4FjCBjrv-f7b" x1="32.376" x2="32.376" y1="64" y2="7" gradientUnits="userSpaceOnUse"><stop offset="0" stop-color="#e6abff"/><stop offset="1" stop-color="#6dc7ff"/></linearGradient><path fill="url(#8HdvL7yHAC4FjCBjrv-f7b)" d="M25.049,7H39.78c0.305,0.832,1.979,5.397,11.267,30.697c-2.399-0.708-5.356-1.327-8.721-1.522	l-5.393-16.69c-0.595-2.173-2.438-3.68-4.52-3.68s-3.925,1.507-4.52,3.68l-5.399,16.71c-3.193,0.237-6.26,0.945-8.79,1.709	C17.391,27.861,24.359,8.874,25.049,7z M24.098,55.103c0.038-0.14,0.075-0.26,0.101-0.381c0.339-1.575,1.619-2.575,3.236-2.528	c1.576,0.046,2.413,0.844,2.656,2.626c0.1,0.731,0.1,1.479,0.11,2.221c0.021,1.524,0.414,2.932,1.242,4.205	c0.783,1.206,1.812,2.124,3.22,2.754c-0.056-0.189-0.078-0.266-0.102-0.344c-1.036-3.178-0.29-5.363,2.467-7.227	c0.897-0.606,1.817-1.181,2.686-1.824c2.173-1.608,3.539-3.728,3.861-6.474c0.132-1.127,0.034-2.235-0.345-3.332	c-0.504,0.306-0.93,0.608-1.391,0.835c-4.03,1.983-8.291,2.228-12.63,1.572c-2.81-0.425-5.523-1.179-7.482-3.557	c-1.129,3.772-0.338,8.978,2.373,11.456L24.098,55.103z"/></svg>